<svg xmlns="http://www.w3.org/2000/svg" viewBox="0 0 100 100">
  <rect width="100" height="100" rx="16" fill="#4f46e5"/>
  <!-- Body -->
  <ellipse cx="48" cy="59" rx="22" ry="13" fill="white"/>
  <!-- Hindquarters -->
  <ellipse cx="32" cy="57" rx="14" ry="13" fill="white"/>
  <!-- Chest -->
  <ellipse cx="63" cy="57" rx="11" ry="11" fill="white"/>
  <!-- Neck -->
  <polygon points="60,52 67,32 74,36 68,54" fill="white"/>
  <!-- Head -->
  <ellipse cx="74" cy="30" rx="12" ry="9" fill="white"/>
  <!-- Muzzle -->
  <ellipse cx="84" cy="34" rx="7" ry="5" fill="white"/>
  <!-- Nostril -->
  <ellipse cx="88" cy="36" rx="1.5" ry="1.5" fill="#6459c8"/>
  <!-- Ear -->
  <polygon points="70,22 73,14 78,22" fill="white"/>
  <!-- Eye -->
  <ellipse cx="80" cy="26" rx="2.2" ry="2" fill="#32286e"/>
  <ellipse cx="79.5" cy="25.5" rx="0.8" ry="0.8" fill="white"/>
  <!-- Mane -->
  <ellipse cx="68" cy="38" rx="4.5" ry="5" fill="#ddd8f8"/>
  <ellipse cx="64" cy="44" rx="3.5" ry="5" fill="#ddd8f8"/>
  <ellipse cx="61" cy="49" rx="3" ry="4" fill="#ddd8f8"/>
  <!-- Back front leg -->
  <rect x="66" y="69" width="5" height="21" fill="#ddd8f8"/>
  <!-- Front front leg -->
  <rect x="60" y="68" width="5.5" height="22" fill="white"/>
  <!-- Back hind leg -->
  <rect x="42" y="69" width="5" height="21" fill="#ddd8f8"/>
  <!-- Front hind leg -->
  <rect x="35" y="68" width="5.5" height="22" fill="white"/>
  <!-- Hooves -->
  <rect x="60" y="88" width="5.5" height="4" fill="#3c3296"/>
  <rect x="66" y="89" width="5" height="3.5" fill="#3c3296"/>
  <rect x="35" y="88" width="5.5" height="4" fill="#3c3296"/>
  <rect x="42" y="89" width="5" height="3.5" fill="#3c3296"/>
  <!-- Tail -->
  <polygon points="27,53 22,48 17,42 13,38 11,35 14,33 20,37 25,43 29,50" fill="white"/>
  <ellipse cx="13" cy="33" rx="4" ry="5" fill="white"/>
  <ellipse cx="12" cy="29" rx="3" ry="4" fill="white"/>
  <ellipse cx="14" cy="25" rx="2.5" ry="3.5" fill="white"/>
</svg>
